<svg width="500mm" height="707.143mm" viewBox="0 0 500 707.143" version="1.1" id="svg1" xml:space="preserve" inkscape:version="1.3 (0e150ed6c4, 2023-07-21)" sodipodi:docname="lamp.svg" xmlns:inkscape="http://www.inkscape.org/namespaces/inkscape" xmlns:sodipodi="http://sodipodi.sourceforge.net/DTD/sodipodi-0.dtd" xmlns="http://www.w3.org/2000/svg" xmlns:svg="http://www.w3.org/2000/svg"><sodipodi:namedview id="namedview1" pagecolor="#ffffff" bordercolor="#000000" borderopacity="0.25" inkscape:showpageshadow="2" inkscape:pageopacity="0.0" inkscape:pagecheckerboard="0" inkscape:deskcolor="#d1d1d1" inkscape:document-units="mm" inkscape:zoom="1.0544998" inkscape:cx="148.4116" inkscape:cy="468.46857" inkscape:window-width="1920" inkscape:window-height="1051" inkscape:window-x="-9" inkscape:window-y="-9" inkscape:window-maximized="1" inkscape:current-layer="layer1"/><defs id="defs1"/><g inkscape:label="Слой 1" inkscape:groupmode="layer" id="layer1"><path style="display:inline;fill:#4f4feb;fill-opacity:0.178862;stroke-width:0.264583" id="path21" cx="75.004036" cy="132.44354" rx="7.5846777" ry="6.5645165" d="M196.64 315.342A18.059 15.63 0 0 1 178.581 330.972A18.059 15.63 0 0 1 160.522 315.342A18.059 15.63 0 0 1 196.64 315.342z"/><path style="fill:#4f4feb;fill-opacity:0.178862;stroke-width:0.264583" id="path21-0" cx="134.34361" cy="132.13124" rx="7.5846777" ry="6.5645165" d="M337.924 314.598A18.059 15.63 0 0 1 319.866 330.228A18.059 15.63 0 0 1 301.807 314.598A18.059 15.63 0 0 1 337.924 314.598z"/><path style="fill:#4f4feb;fill-opacity:0.53;stroke-width:0.264583" d="M128.252 174.264c-38.91 -27.717 -0.102 -50.164 2.471 1.698" id="path22"/><path style="fill:#4f4feb;fill-opacity:0.53;stroke-width:0.264583" d="M175.567 120.59c-34.533 -48.902 15.379 -57.505 1.195 1.195" id="path25"/><path style="fill:#3a3aa2;fill-opacity:0.53;stroke-width:0.264583" d="M244.931 113.083c-20.093 -95.686 25.531 -51 0 0" id="path26" sodipodi:nodetypes="cc"/><path style="fill:#4f4feb;fill-opacity:0.53;stroke-width:0.264583" d="M319.012 126.35c-8.01 -49.86 37.81 -55.5 0 0" id="path28" sodipodi:nodetypes="cc"/><path style="fill:#4f4feb;fill-opacity:0.53;stroke-width:0.264583" d="M362.071 168.543c12.464 -49.821 42.607 -26.864 -0.219 0.502" id="path30" sodipodi:nodetypes="cc"/><path style="fill:#4f4feb;fill-opacity:0.53;stroke-width:0.264583" d="m591.398 363.286 -26.255 -88.481" id="path31"/><path style="display:inline;fill: #1f10ea" d="M246.412 581.983c-7.131 -0.617 -12.217 -2.09 -20.788 -6.029 -8.702 -3.995 -27.719 -21.721 -27.719 -25.836 0 -4.048 4.802 -6.543 9.25 -4.802 0.976 0.381 3.476 0.945 5.555 1.252 2.079 0.31 5.905 1.012 8.505 1.567 4.967 1.06 21.155 2.34 30.238 2.393 12.46 0.071 23.567 -0.924 32.126 -2.876a109.524 109.524 0 0 1 6.3 -1.179c1.905 -0.29 4.976 -0.888 6.819 -1.324 9.802 -2.321 10.695 4.126 1.888 13.648 -15.676 16.952 -33.367 24.812 -52.174 23.186m17.01 -7.712c18.743 -5.245 38.574 -23.769 21.733 -20.3l-6.614 1.355c-15.176 3.086 -46.105 2.424 -60.55 -1.298 -7.486 -1.929 -9.626 0.243 -4.81 4.876 3.829 3.681 14.038 10.869 16.845 11.86 1.31 0.462 3.3 1.314 4.419 1.893 5.581 2.886 21.302 3.762 28.976 1.614M235.071 535.5c-9.914 -0.724 -12.929 -1.171 -21.9 -3.252a171.429 171.429 0 0 0 -9.25 -1.774c-6.795 -1.1 -8.793 -2.043 -9.05 -4.274 -0.293 -2.538 1.981 -3.424 6.34 -2.471 19.548 4.274 24.098 5.007 36.067 5.821 18.162 1.236 35.019 0.183 51.024 -3.183 3.467 -0.729 7.293 -1.469 8.507 -1.648 1.212 -0.181 3.398 -0.626 4.857 -0.993 4.664 -1.176 7.557 0.702 5.888 3.824 -0.671 1.252 -2.064 1.638 -14.84 4.117 -2.771 0.538 -7.024 1.421 -9.45 1.967 -10.186 2.283 -31.314 3.102 -48.19 1.867m5.357 -22.348a121.429 121.429 0 0 0 -9.452 -0.586c-2.769 -0.048 -9.714 -0.962 -15.433 -2.031a895.238 895.238 0 0 0 -15.433 -2.762c-6.983 -1.136 -8.257 -1.519 -9.457 -2.845 -2.288 -2.529 0.595 -5.41 4.331 -4.331 1.088 0.314 4.669 1.002 7.962 1.529s7.262 1.195 8.819 1.486c21.524 4.01 54.057 4.976 68.35 2.031 1.733 -0.357 7.262 -1.374 12.286 -2.257s10.71 -1.888 12.636 -2.233c6.583 -1.174 8.714 -0.424 7.907 2.786 -0.457 1.821 -2.557 2.629 -10.002 3.833 -2.852 0.464 -9.155 1.59 -14.007 2.505 -13.055 2.46 -38.736 3.981 -48.507 2.876m-14.49 -23.993c-18.683 -1.476 -39.69 -4.49 -41.138 -5.9 -0.929 -0.905 -3.274 -9.719 -3.274 -12.31 0 -6.026 -7.207 -33.976 -11.052 -42.867 -0.826 -1.905 -3.231 -7.717 -5.345 -12.914 -4.031 -9.905 -13.319 -27.507 -21.276 -40.319 -9.224 -14.848 -21.262 -40.638 -24.993 -53.548 -0.602 -2.076 -1.348 -4.429 -1.657 -5.224 -0.31 -0.798 -0.562 -2.833 -0.562 -4.526s-0.31 -3.879 -0.69 -4.852c-2.352 -6.067 -2.638 -33.055 -0.464 -44.298 0.369 -1.905 0.905 -4.738 1.188 -6.298 0.56 -3.062 1.243 -6.071 2.505 -11.024 1.771 -6.964 8.995 -24.019 12.671 -29.924 1.186 -1.905 2.998 -4.843 4.024 -6.524 7.393 -12.105 22.393 -28.24 33.717 -36.274 10.667 -7.564 23.986 -14.931 31.779 -17.579 2.079 -0.707 5.905 -2.031 8.505 -2.945s6 -1.907 7.56 -2.207c1.56 -0.302 5.386 -1.102 8.505 -1.783 13.619 -2.969 37.281 -2.962 51.026 0.014 3.119 0.674 6.805 1.455 8.19 1.733 8.65 1.738 25.54 8.721 35.871 14.833 25.845 15.288 48.762 41.869 57.738 66.974 0.71 1.981 1.548 4.167 1.862 4.86 1.119 2.467 2.024 5.071 2.521 7.245 0.276 1.214 0.969 3.905 1.543 5.983 1.6 5.805 2.988 14.881 4.071 26.619 0.655 7.067 0.264 14.731 -1.319 25.983a380.952 380.952 0 0 0 -1.152 9.136c-0.519 4.667 -1.655 9.052 -2.605 10.048 -0.314 0.329 -0.571 1.174 -0.571 1.876 0 5.362 -12.75 32.512 -24.276 51.702a550 550 0 0 0 -12.731 22.362c-1.221 2.252 -2.855 5.248 -3.631 6.655 -1.333 2.414 -7.452 17.102 -10.876 26.105 -0.857 2.25 -2.245 6.502 -3.086 9.448s-1.952 6.774 -2.471 8.505c-2.862 9.533 -3.348 11.85 -4.652 22.198 -1.71 13.548 -1.8 13.652 -13.243 15.286 -15.119 2.152 -17.09 2.424 -22.993 3.169 -7.1 0.898 -49.905 1.317 -59.217 0.581m39.655 -5.976c12.81 -0.267 15.921 -0.521 30.9 -2.521 3.812 -0.507 8.283 -1.083 9.936 -1.279 3.648 -0.429 4.657 -1.702 5.233 -6.607 0.655 -5.588 -0.512 -5.771 -17.688 -2.776 -18.44 3.214 -66.21 3.226 -85.045 0.021 -18.219 -3.1 -19.155 -2.917 -17.929 3.538 0.969 5.126 1.138 5.436 9.738 6.405 1.214 0.136 4.7 0.821 7.245 0.99 11.276 0.748 15.214 1.788 22.943 1.848 4.502 0.033 10.833 0.529 13.964 0.469 3.329 -0.064 5.974 0.143 6.476 0.01 0.5 -0.131 6.929 0.057 14.226 -0.095zm-1.857 -16.679c42.39 -2.881 49.364 -4.286 50.69 -10.2 0.412 -1.836 1.429 -5.607 2.26 -8.379s2.248 -7.724 3.15 -11.002a140.476 140.476 0 0 1 3.795 -11.483c1.186 -3.036 2.155 -5.667 2.155 -5.848 0 -0.179 0.821 -2.098 1.826 -4.264 1.002 -2.167 3 -6.626 4.436 -9.907 2.257 -5.152 7.857 -16.052 11.983 -23.326 2.279 -4.012 19.552 -36.083 19.552 -36.298 0 -0.117 1.745 -3.974 3.876 -8.571 2.133 -4.6 4.098 -9.214 4.369 -10.252s1.102 -3.731 1.848 -5.983c2.371 -7.157 2.729 -8.436 3.262 -11.655 3.152 -18.995 3.138 -39.183 -0.031 -52.917 -2.857 -12.376 -5.44 -19.795 -10.417 -29.924 -17.686 -35.986 -48.464 -59.819 -89.524 -69.324 -87.912 -20.345 -173.643 67.586 -150.786 154.648 3.236 12.319 11.967 33.131 19.095 45.51a388.095 388.095 0 0 1 4.386 7.757c0.452 0.867 4.16 7.779 8.236 15.362 12.2 22.69 21.243 42.724 23.919 53 0.995 3.821 1.271 4.762 3.69 12.588 0.86 2.774 1.926 6.698 2.369 8.724 1.498 6.812 1.31 6.717 17.274 8.662 5.89 0.714 12.552 1.548 14.802 1.848 2.252 0.3 6.648 0.588 9.764 0.643 3.119 0.05 7.231 0.31 9.136 0.571 5.26 0.729 14.398 0.736 24.883 0.024zm-20.788 -147.952c-6.114 -2.795 -12.367 -12.979 -9.638 -15.705 1.652 -1.652 3.621 -0.855 5.512 2.236 7.195 11.762 17.017 12.388 24.169 1.538 4.843 -7.348 9.798 -5.224 5.821 2.493 -4.902 9.505 -16.471 13.726 -25.864 9.436m-47.238 -26.619c-7.329 -6.431 -8.786 -19.81 -2.81 -25.786 5.912 -5.912 11.057 0.026 11.757 13.579 0.61 11.764 -3.331 17.143 -8.948 12.21m106.452 1.095c-3.555 -1.55 -3.781 -2.276 -3.745 -11.983 0.06 -16.769 6.893 -22.695 13.879 -12.038 3.393 5.181 0.486 18.024 -5.214 23.026 -2.412 2.119 -2.362 2.11 -4.919 0.995" id="path15" sodipodi:insensitive="true" sodipodi:nodetypes="sssssssssssssssssssssssssssssssssssssssscsssssssssssssssssssssssssssssssssssssssssssssssssscsssscssscsscccssssssssssssccsssssssssssssccsssssssssssssss"/></g></svg>